<?xml version="1.0" standalone="no"?>
<!DOCTYPE svg PUBLIC "-//W3C//DTD SVG 20010904//EN"
 "http://www.w3.org/TR/2001/REC-SVG-20010904/DTD/svg10.dtd">
<svg version="1.0" xmlns="http://www.w3.org/2000/svg"
 width="2000.000000pt" height="2000.000000pt" viewBox="0 0 2000.000000 2000.000000"
 preserveAspectRatio="xMidYMid meet">

<g transform="translate(0.000000,2000.000000) scale(0.100000,-0.100000)"
fill="#000000" stroke="none">
<path d="M9240 19389 c-41 -5 -115 -15 -165 -24 -49 -8 -160 -22 -245 -30 -85
-7 -172 -21 -192 -29 -21 -9 -84 -21 -140 -27 -57 -6 -125 -20 -153 -30 -27
-11 -84 -24 -125 -30 -41 -6 -94 -19 -117 -29 -23 -10 -68 -24 -100 -30 -32
-7 -78 -22 -103 -35 -25 -12 -68 -25 -97 -28 -28 -3 -69 -15 -90 -25 -21 -11
-65 -25 -98 -32 -33 -7 -74 -21 -91 -31 -18 -11 -58 -24 -90 -30 -33 -6 -79
-20 -102 -31 -24 -10 -68 -23 -98 -28 -29 -5 -73 -20 -96 -34 -24 -13 -60 -28
-80 -31 -20 -4 -51 -18 -69 -31 -18 -13 -40 -24 -50 -24 -9 0 -41 -13 -72 -30
-31 -16 -63 -30 -71 -30 -9 0 -30 -13 -48 -28 -18 -15 -44 -34 -58 -41 -14 -7
-52 -28 -85 -46 -33 -19 -83 -45 -112 -59 -28 -14 -54 -30 -58 -36 -4 -7 -28
-21 -53 -31 -26 -11 -49 -24 -52 -29 -5 -8 -42 -30 -142 -84 -26 -14 -50 -31
-54 -37 -3 -6 -23 -18 -43 -28 -39 -17 -74 -41 -124 -82 -18 -14 -47 -34 -66
-44 -19 -9 -43 -26 -54 -36 -12 -10 -24 -19 -29 -19 -4 0 -17 -9 -28 -20 -10
-10 -36 -31 -57 -45 -72 -48 -88 -60 -191 -148 -57 -48 -124 -111 -148 -139
-25 -27 -67 -68 -92 -90 -26 -22 -57 -50 -69 -62 -12 -11 -46 -37 -75 -56 -42
-28 -221 -202 -350 -340 -23 -25 -120 -145 -220 -273 -29 -37 -65 -82 -79
-100 -14 -18 -34 -47 -44 -64 -11 -18 -23 -33 -27 -33 -4 0 -17 -17 -28 -37
-12 -21 -32 -54 -45 -73 -13 -19 -35 -50 -47 -68 -13 -19 -35 -48 -49 -65 -15
-18 -29 -42 -33 -55 -4 -12 -18 -35 -31 -50 -12 -15 -27 -43 -32 -62 -6 -19
-22 -53 -37 -74 -14 -21 -26 -44 -26 -50 0 -6 -14 -29 -30 -50 -17 -22 -30
-44 -30 -50 0 -6 -14 -31 -30 -55 -17 -24 -30 -52 -30 -61 0 -10 -9 -29 -20
-43 -11 -14 -27 -45 -35 -68 -9 -24 -22 -51 -31 -60 -8 -9 -22 -38 -29 -64 -8
-25 -23 -58 -33 -73 -11 -15 -25 -45 -32 -67 -7 -22 -21 -51 -31 -65 -9 -14
-20 -42 -24 -63 -3 -21 -17 -53 -29 -72 -13 -19 -27 -51 -31 -71 -3 -21 -17
-58 -30 -83 -13 -25 -27 -64 -31 -86 -4 -22 -17 -58 -29 -80 -13 -22 -26 -60
-30 -84 -4 -24 -18 -64 -31 -90 -13 -25 -28 -74 -33 -108 -5 -34 -16 -75 -25
-91 -8 -16 -21 -70 -29 -119 -8 -50 -22 -104 -32 -122 -9 -18 -21 -72 -26
-121 -5 -48 -19 -119 -30 -157 -10 -37 -24 -122 -30 -188 -10 -119 -43 -321
-59 -361 -10 -27 -96 -84 -126 -84 -13 0 -39 -13 -57 -30 -19 -16 -38 -30 -41
-30 -18 0 -159 -104 -194 -143 -10 -10 -38 -29 -63 -42 -25 -13 -51 -31 -58
-39 -8 -9 -18 -16 -24 -16 -5 0 -24 -11 -41 -24 -17 -12 -46 -31 -65 -41 -19
-9 -43 -26 -54 -36 -12 -10 -25 -19 -30 -19 -5 0 -30 -14 -55 -32 -87 -59 -98
-66 -147 -92 -28 -15 -70 -40 -95 -56 -25 -16 -63 -39 -85 -51 -22 -12 -57
-40 -77 -62 l-38 -41 0 -157 c0 -87 -4 -169 -10 -183 -5 -14 -28 -42 -51 -63
-24 -21 -57 -51 -75 -68 -38 -36 -118 -95 -128 -95 -11 0 -166 -159 -166 -169
0 -5 -11 -23 -25 -39 -44 -53 -54 -106 -44 -244 5 -68 13 -280 19 -473 5 -192
14 -381 20 -420 17 -121 30 -382 30 -600 1 -262 15 -532 35 -650 8 -49 19
-200 25 -335 12 -307 28 -567 40 -662 5 -40 12 -147 15 -238 3 -91 8 -179 11
-197 6 -40 58 -103 170 -205 224 -204 262 -238 309 -278 28 -23 65 -59 82 -79
l33 -36 0 -123 c0 -81 5 -134 14 -155 15 -37 105 -103 162 -119 21 -5 49 -18
62 -28 13 -10 37 -22 55 -25 18 -4 52 -18 77 -30 25 -13 84 -42 132 -65 47
-23 94 -50 103 -60 10 -11 38 -22 64 -26 25 -3 73 -19 106 -35 33 -16 69 -29
80 -29 12 0 36 -11 54 -24 19 -14 47 -28 63 -31 29 -7 250 -116 274 -136 6 -5
14 -44 18 -87 4 -42 15 -111 26 -152 10 -41 21 -124 25 -185 6 -111 26 -278
44 -370 5 -27 12 -106 16 -175 5 -86 13 -141 27 -174 13 -33 22 -93 28 -180
12 -174 28 -317 45 -391 8 -33 17 -116 20 -185 4 -70 15 -153 25 -190 10 -36
21 -103 25 -150 13 -193 28 -319 46 -392 10 -42 19 -88 19 -103 0 -14 5 -36
12 -48 10 -19 83 -93 150 -152 13 -11 39 -39 58 -61 20 -22 69 -68 110 -103
41 -35 85 -73 97 -85 22 -22 41 -38 178 -151 101 -83 145 -120 198 -168 71
-64 225 -187 235 -187 5 0 27 -13 48 -30 22 -16 59 -44 83 -62 24 -18 57 -44
72 -58 16 -14 47 -40 69 -59 68 -58 117 -106 158 -154 41 -47 196 -184 332
-292 69 -55 117 -97 174 -150 11 -11 122 -107 246 -214 124 -107 234 -203 245
-213 40 -38 180 -148 188 -148 14 0 66 -45 177 -152 55 -54 117 -110 138 -125
36 -27 167 -138 207 -175 30 -28 89 -80 127 -110 51 -42 189 -156 231 -191 22
-18 46 -39 55 -48 10 -9 102 -90 207 -180 104 -90 227 -200 272 -245 75 -74
88 -82 155 -102 l73 -22 1680 0 1680 1 52 22 c52 23 94 56 170 137 23 25 59
59 80 77 103 86 280 239 299 257 31 32 144 129 168 145 26 18 281 235 317 271
15 14 44 39 65 57 143 117 271 229 283 245 20 29 74 80 116 108 20 14 57 40
83 59 51 38 641 543 712 610 25 23 86 76 136 116 153 124 259 218 300 265 43
50 298 273 348 305 18 11 48 29 66 40 34 21 161 123 215 172 17 16 79 69 139
118 101 84 275 231 355 300 19 17 64 61 100 99 36 38 82 83 101 100 19 17 58
53 86 81 l51 50 27 145 c15 79 31 203 36 275 5 71 16 150 25 175 9 25 22 120
30 215 8 94 23 211 33 260 11 50 23 142 27 205 7 124 27 288 45 360 5 25 15
108 20 185 5 79 16 160 25 185 9 25 21 106 26 180 11 155 20 234 42 375 9 55
20 127 24 160 7 53 11 62 38 75 17 8 46 25 65 36 19 12 46 25 60 29 14 4 36
15 50 25 14 9 43 23 65 30 22 7 56 22 75 35 19 13 51 26 70 30 19 4 52 16 72
26 21 11 61 24 90 30 29 7 65 22 80 35 16 12 38 26 50 30 13 4 39 17 58 30 19
12 51 25 70 29 19 4 44 15 55 25 11 10 39 23 61 29 23 6 52 20 66 30 13 11 42
24 65 30 22 6 47 18 54 27 7 8 30 24 50 35 21 10 41 24 45 31 4 7 10 78 13
158 l6 147 42 39 c142 135 291 272 371 343 51 46 111 108 134 137 38 51 41 60
44 127 20 410 27 521 40 637 8 74 19 248 24 385 5 138 14 288 20 335 25 199
31 295 40 665 9 364 14 470 40 765 5 63 12 216 15 340 3 124 10 290 16 370 15
203 9 216 -161 389 -47 47 -107 102 -133 121 -26 19 -83 68 -125 109 l-77 74
-3 178 -3 177 -48 44 c-46 42 -74 61 -151 103 -20 11 -50 30 -67 43 -17 12
-35 22 -41 22 -5 0 -22 10 -38 23 -31 25 -79 55 -139 88 -22 12 -46 30 -53 40
-7 11 -19 19 -25 19 -14 0 -106 56 -151 92 -17 13 -43 29 -59 36 -17 7 -40 22
-52 35 -56 55 -166 137 -185 137 -4 0 -27 16 -50 35 -23 19 -52 35 -65 35 -13
0 -36 11 -52 24 -15 12 -38 28 -50 35 -14 7 -25 25 -29 49 -4 20 -13 55 -21
76 -7 22 -18 103 -23 180 -5 78 -19 177 -30 221 -12 44 -27 128 -35 187 -8 59
-22 124 -30 145 -9 21 -22 80 -30 132 -8 51 -19 99 -25 106 -6 7 -17 46 -26
86 -8 41 -25 94 -38 119 -13 25 -26 65 -30 90 -4 24 -15 58 -26 75 -10 17 -24
53 -30 80 -6 28 -22 71 -35 96 -13 25 -27 62 -30 82 -4 21 -16 48 -26 60 -10
13 -23 46 -30 73 -7 27 -20 61 -31 76 -10 14 -18 30 -18 35 0 4 -16 41 -35 81
-19 39 -51 105 -70 145 -19 39 -35 77 -35 83 0 6 -9 23 -20 37 -12 14 -26 41
-32 59 -6 18 -22 47 -35 64 -12 17 -23 35 -23 40 0 9 -17 37 -89 152 -11 18
-25 50 -31 72 -6 21 -15 42 -20 45 -6 4 -22 27 -36 53 -13 26 -36 63 -49 82
-13 19 -34 49 -45 65 -67 98 -107 153 -155 215 -19 25 -42 59 -51 75 -9 17
-26 40 -38 51 -25 26 -53 59 -148 179 -82 104 -80 101 -235 264 -106 111 -179
175 -254 223 -14 9 -89 79 -166 155 -78 76 -158 152 -178 168 -21 17 -48 41
-61 54 -14 13 -33 29 -43 35 -24 15 -117 80 -166 117 -22 16 -62 45 -90 64
-27 19 -69 48 -93 65 -23 16 -61 39 -84 51 -22 11 -50 29 -61 40 -12 10 -26
19 -32 19 -6 0 -21 9 -33 21 -13 11 -39 27 -60 36 -20 8 -45 22 -56 31 -17 16
-55 38 -142 81 -22 11 -51 29 -65 39 -13 11 -41 25 -61 31 -21 7 -40 17 -44
22 -3 5 -27 20 -53 33 -26 14 -53 32 -60 40 -7 9 -32 21 -55 27 -22 6 -50 19
-61 30 -12 10 -36 22 -55 25 -19 4 -48 17 -65 29 -16 12 -46 25 -66 29 -21 3
-48 15 -62 26 -14 11 -61 27 -104 36 -43 8 -94 23 -113 33 -19 11 -55 22 -80
26 -25 4 -77 21 -117 36 -39 16 -82 29 -95 29 -13 0 -42 9 -63 20 -22 12 -74
28 -115 36 -40 9 -91 24 -112 35 -20 10 -61 24 -90 30 -29 6 -69 19 -88 29
-19 10 -72 23 -118 29 -45 6 -96 18 -113 26 -16 9 -85 23 -151 31 -67 8 -126
18 -131 21 -6 3 -40 12 -76 19 -59 11 -67 11 -78 -4 -17 -21 -17 -201 0 -223
18 -24 67 -37 185 -50 59 -6 127 -20 152 -31 29 -12 87 -23 162 -29 74 -6 144
-18 193 -34 41 -14 86 -25 98 -25 12 0 47 -12 77 -26 30 -14 80 -30 110 -36
30 -5 69 -18 85 -28 17 -10 54 -23 83 -29 29 -6 77 -22 105 -35 29 -13 68 -27
87 -31 19 -4 55 -18 80 -31 25 -13 54 -24 66 -24 12 0 37 -11 57 -25 20 -13
56 -29 79 -35 24 -6 54 -19 68 -29 14 -10 48 -26 77 -35 28 -9 57 -24 63 -31
7 -8 31 -20 53 -26 23 -6 54 -22 70 -35 16 -13 34 -24 41 -24 7 0 32 -13 57
-28 24 -16 66 -43 93 -60 27 -18 57 -32 65 -32 9 0 28 -10 43 -23 15 -13 45
-32 68 -42 33 -15 42 -25 51 -59 6 -23 22 -70 35 -106 13 -36 29 -96 34 -134
6 -38 18 -83 27 -100 9 -17 22 -65 29 -107 6 -41 21 -95 32 -120 11 -24 23
-66 27 -94 4 -27 17 -81 31 -118 13 -38 28 -105 34 -150 6 -45 20 -109 32
-142 11 -33 24 -103 28 -155 5 -52 17 -120 28 -150 11 -31 22 -98 26 -152 3
-53 17 -150 30 -215 14 -65 30 -174 36 -243 6 -69 17 -152 25 -185 19 -89 24
-137 35 -385 6 -124 18 -265 26 -315 22 -121 33 -1461 15 -1625 -20 -168 -31
-288 -37 -400 -8 -129 -20 -155 -71 -163 -21 -4 -182 -11 -358 -17 -357 -11
-603 -26 -673 -40 -26 -5 -234 -14 -462 -20 -228 -6 -543 -16 -700 -22 -157
-5 -352 -12 -435 -14 -171 -5 -175 -7 -175 -84 0 -90 -43 -84 541 -71 902 21
1180 30 1274 46 50 8 234 19 410 25 176 6 345 13 375 16 30 4 75 7 100 9 25 1
72 8 105 14 154 28 204 11 360 -124 17 -15 57 -46 90 -71 33 -25 98 -84 145
-133 47 -48 113 -112 148 -142 35 -30 91 -80 125 -111 34 -32 65 -58 69 -58
14 0 148 -116 251 -218 l109 -106 -26 -23 c-14 -12 -43 -25 -64 -28 -20 -3
-53 -10 -72 -16 -19 -5 -112 -16 -205 -24 -94 -8 -213 -23 -264 -35 -55 -12
-163 -24 -265 -30 -94 -6 -196 -17 -226 -25 -33 -9 -141 -19 -270 -25 -118 -6
-285 -17 -370 -26 -299 -28 -378 -33 -705 -45 -181 -6 -370 -15 -420 -20 -208
-22 -483 -28 -1670 -34 -1557 -9 -2728 5 -2970 34 -106 13 -264 22 -465 26
-168 3 -354 13 -415 20 -139 18 -325 32 -586 44 -120 6 -247 18 -309 30 -58
10 -168 22 -245 24 -83 3 -179 14 -235 25 -84 18 -143 25 -400 48 -123 10
-220 45 -220 77 0 21 290 295 341 323 22 12 196 172 339 311 63 62 135 128
160 147 25 19 59 46 75 61 143 123 154 130 229 133 39 2 118 -3 176 -12 100
-16 205 -22 740 -46 129 -6 253 -15 275 -21 22 -5 222 -14 445 -19 223 -5 572
-14 775 -20 204 -6 474 -13 600 -15 127 -2 248 -9 270 -14 53 -14 231 -14 256
0 17 8 19 16 13 42 -8 36 -26 53 -67 61 -16 3 -42 17 -57 30 -27 22 -39 24
-197 30 -92 4 -223 11 -291 16 -67 6 -170 10 -228 10 -58 0 -135 4 -172 10
-37 5 -330 14 -652 21 -322 6 -630 15 -685 19 -55 5 -156 13 -225 19 -69 6
-288 15 -487 20 -214 5 -369 14 -381 20 -32 17 -40 58 -52 266 -6 110 -16 236
-22 280 -16 115 -16 1203 0 1315 14 102 29 321 42 600 5 128 15 226 24 260 9
30 20 127 26 215 11 169 23 267 40 325 6 19 15 100 21 180 7 94 19 173 34 225
13 44 27 116 30 160 4 44 18 116 30 160 13 44 27 109 30 145 4 36 17 88 30
116 12 28 25 77 29 110 4 32 16 77 27 98 12 22 27 76 34 121 7 45 20 96 28
112 9 16 23 69 32 118 9 48 25 104 35 124 10 20 21 58 25 85 9 67 25 82 184
173 31 17 70 38 86 47 17 8 45 26 64 40 19 14 40 26 47 26 6 0 27 11 47 25 20
13 54 29 76 35 21 5 44 17 51 25 6 7 28 19 48 26 20 6 60 24 88 40 28 16 58
29 66 29 8 0 35 11 59 23 24 13 67 31 95 41 28 9 68 25 90 36 21 11 48 20 60
20 11 0 41 11 66 24 24 13 68 29 97 35 28 6 69 20 89 30 21 11 63 24 93 29 31
6 74 20 96 31 21 12 66 26 99 31 32 6 86 20 119 30 33 11 110 24 171 30 67 6
129 18 155 29 24 11 80 22 124 26 44 4 112 15 150 25 73 19 174 34 310 46 43
4 113 16 155 27 69 18 117 20 560 24 486 5 810 -5 849 -27 30 -16 147 -25 155
-12 7 11 -40 86 -73 116 -11 10 -25 33 -31 52 -10 30 -31 48 -109 94 -22 13
-112 15 -616 17 -324 0 -624 -3 -665 -8z m-3096 -1365 c9 -8 16 -19 16 -24 0
-28 -25 -121 -42 -153 -10 -21 -25 -74 -33 -117 -8 -43 -21 -93 -30 -110 -9
-17 -25 -75 -35 -128 -11 -53 -26 -118 -34 -143 -7 -25 -17 -81 -21 -125 -4
-43 -16 -101 -27 -129 -12 -30 -24 -93 -29 -156 -5 -59 -14 -119 -20 -135 -14
-38 -36 -181 -49 -320 -5 -61 -17 -131 -26 -155 -10 -26 -21 -116 -29 -224 -8
-99 -21 -209 -29 -245 -11 -44 -19 -168 -27 -390 -6 -179 -18 -379 -27 -445
-24 -177 -30 -995 -8 -1110 12 -59 16 -164 18 -404 3 -294 1 -325 -14 -334
-17 -11 -384 6 -478 23 -144 25 -208 31 -430 39 -167 7 -264 15 -305 26 -33 9
-170 25 -305 35 -135 11 -269 26 -298 34 -29 8 -114 18 -188 22 -180 9 -179 8
-176 143 1 58 13 157 27 230 14 71 29 182 34 248 5 65 16 134 25 154 8 20 22
90 30 155 8 65 23 144 35 174 11 30 23 82 26 115 4 33 16 75 27 94 11 19 26
69 33 111 7 42 22 92 33 111 11 19 24 52 27 74 4 22 15 52 26 67 10 14 26 58
34 97 9 39 21 73 26 76 4 3 18 36 29 72 11 36 29 80 39 97 10 17 22 47 26 66
4 19 17 51 30 70 13 19 26 49 30 67 3 18 15 43 25 56 10 13 26 55 35 92 9 38
22 76 29 85 8 8 19 35 26 60 6 25 20 54 31 65 10 12 24 36 30 55 7 19 22 49
35 65 12 17 25 41 29 55 4 14 15 34 25 45 10 11 25 35 34 53 9 17 21 32 26 32
5 0 19 17 30 38 24 43 59 95 92 137 14 17 30 45 37 63 8 17 17 32 22 32 5 0
16 15 25 33 9 17 29 46 43 63 27 33 114 149 141 188 25 37 301 359 361 421 32
33 99 103 149 155 50 52 115 120 145 151 30 32 72 68 94 80 38 23 178 128 212
159 9 8 37 31 63 50 26 19 65 49 87 67 22 17 48 35 59 38 11 4 20 10 20 15 0
5 18 19 40 31 22 13 40 26 40 31 0 7 67 47 82 48 4 0 14 -7 22 -16z m7544 -9
c20 -13 55 -38 77 -54 35 -27 70 -52 165 -118 14 -10 53 -40 87 -68 144 -118
190 -153 218 -167 17 -9 59 -45 95 -80 120 -117 408 -422 472 -500 246 -298
251 -305 323 -408 13 -19 37 -52 52 -74 34 -47 77 -111 101 -149 9 -16 40 -59
69 -97 28 -37 58 -81 66 -97 9 -16 22 -35 31 -42 8 -7 20 -29 27 -49 6 -20 19
-46 29 -57 10 -11 27 -40 39 -65 11 -25 25 -52 30 -60 16 -24 61 -140 78 -200
8 -30 25 -73 38 -95 13 -22 26 -54 30 -72 3 -17 13 -37 21 -44 7 -6 20 -32 28
-58 7 -25 25 -68 40 -95 14 -27 26 -59 26 -71 0 -12 11 -42 24 -67 13 -24 29
-69 35 -98 6 -29 20 -67 30 -84 11 -17 23 -49 27 -71 3 -22 17 -58 30 -80 12
-22 27 -68 33 -102 5 -34 17 -76 26 -94 10 -17 23 -71 31 -119 8 -49 23 -108
33 -131 11 -24 22 -75 26 -114 4 -38 17 -115 30 -170 13 -55 29 -165 34 -245
6 -80 18 -174 26 -210 9 -36 18 -121 22 -190 5 -109 4 -127 -11 -139 -11 -9
-61 -17 -144 -22 -70 -4 -163 -17 -207 -28 -51 -13 -146 -24 -260 -31 -99 -6
-241 -20 -315 -31 -74 -11 -225 -24 -335 -30 -187 -9 -227 -13 -380 -38 -87
-14 -477 -35 -508 -27 -18 4 -29 15 -34 34 -7 27 11 379 27 527 5 44 12 258
16 475 7 400 -1 662 -30 1090 -9 118 -20 301 -25 405 -6 105 -17 215 -26 245
-8 30 -19 118 -25 196 -5 77 -19 185 -30 240 -12 54 -27 164 -35 244 -8 80
-23 170 -34 200 -10 30 -22 91 -26 135 -4 44 -16 107 -26 140 -10 33 -25 108
-33 167 -9 59 -24 133 -35 165 -10 32 -22 83 -26 113 -4 29 -16 74 -27 100
-11 25 -24 74 -29 110 -5 36 -19 82 -30 104 -31 59 -41 126 -23 154 18 27 16
27 62 -3z m2902 -4688 c15 -12 40 -30 56 -39 16 -10 49 -31 74 -48 25 -17 57
-38 73 -48 15 -9 51 -39 80 -65 28 -27 73 -59 98 -72 25 -13 51 -31 58 -39 8
-9 19 -16 26 -16 6 0 20 -9 31 -21 10 -11 34 -27 54 -35 19 -8 44 -23 55 -33
11 -10 57 -39 103 -66 45 -26 82 -51 82 -55 0 -3 18 -16 39 -28 58 -33 62 -54
45 -249 -8 -92 -19 -294 -24 -448 -5 -154 -12 -293 -15 -310 -15 -86 -36 -418
-45 -715 -6 -195 -19 -410 -31 -515 -12 -116 -23 -314 -30 -555 -5 -206 -14
-402 -18 -435 -24 -176 -32 -297 -42 -675 -6 -228 -15 -446 -19 -485 -9 -75
-26 -365 -38 -667 l-7 -187 -30 -31 c-18 -18 -50 -37 -81 -46 -29 -8 -58 -22
-65 -30 -6 -8 -31 -19 -55 -25 -23 -6 -52 -20 -63 -30 -12 -11 -41 -28 -65
-38 -24 -11 -47 -24 -50 -30 -4 -6 -31 -18 -60 -26 -30 -9 -61 -24 -71 -35 -9
-10 -34 -21 -56 -25 -21 -4 -50 -16 -64 -27 -14 -11 -42 -24 -63 -30 -20 -5
-46 -18 -57 -27 -11 -10 -48 -28 -83 -40 -91 -32 -94 -27 -86 149 4 74 10 155
15 180 23 112 39 230 39 290 0 81 11 122 44 161 22 26 26 40 26 97 0 37 5 94
10 127 21 124 40 284 45 390 4 61 15 157 25 215 21 118 27 189 40 470 6 117
15 217 25 250 8 30 19 127 25 215 8 147 24 298 49 480 6 39 15 152 21 253 6
101 17 218 26 260 8 42 19 160 25 262 6 102 19 228 30 280 11 52 24 172 29
265 11 203 18 273 31 342 6 29 16 99 22 155 l12 103 98 50 c53 27 104 61 114
74 38 55 35 161 -5 204 -11 12 -23 36 -26 53 -4 18 -16 40 -26 49 -11 10 -26
39 -35 65 -9 27 -23 54 -30 60 -8 7 -20 31 -26 54 -6 22 -23 60 -37 83 -15 22
-35 54 -44 70 -10 15 -22 35 -27 43 -5 8 -28 49 -52 90 -23 41 -49 82 -56 91
-8 9 -24 35 -36 58 -12 23 -41 74 -64 114 -51 90 -62 140 -38 167 20 22 49 15
95 -23z m-13329 17 c20 -25 11 -84 -22 -133 -16 -25 -29 -50 -29 -56 0 -7 -9
-20 -20 -30 -10 -9 -25 -34 -31 -54 -7 -20 -21 -48 -33 -62 -12 -15 -30 -41
-41 -59 -38 -62 -70 -118 -94 -161 -13 -24 -32 -55 -42 -68 -11 -13 -24 -42
-30 -65 -5 -22 -19 -54 -30 -69 -11 -15 -26 -46 -34 -67 -8 -22 -23 -49 -34
-61 -11 -12 -23 -34 -26 -49 -3 -15 -17 -42 -31 -61 -20 -27 -24 -44 -24 -101
0 -61 3 -71 31 -103 17 -19 43 -38 58 -41 41 -10 140 -67 145 -84 3 -8 10 -66
16 -128 6 -62 15 -125 21 -140 6 -15 17 -130 25 -257 8 -126 24 -288 35 -360
12 -71 25 -209 29 -305 5 -105 15 -197 25 -230 8 -30 20 -127 25 -215 9 -167
21 -282 47 -475 8 -63 19 -183 23 -265 4 -83 17 -202 28 -265 12 -63 26 -203
32 -310 6 -107 17 -229 25 -270 8 -41 21 -187 30 -325 9 -138 23 -278 32 -315
8 -36 19 -114 23 -173 6 -99 9 -110 34 -136 24 -25 29 -41 36 -117 5 -49 16
-127 25 -174 8 -47 20 -146 25 -220 5 -74 12 -158 15 -186 5 -41 2 -55 -15
-77 l-21 -26 -42 20 c-23 11 -49 25 -57 30 -8 5 -31 16 -50 24 -19 8 -61 28
-92 45 -31 16 -63 30 -71 30 -25 0 -302 138 -323 161 -8 9 -28 19 -45 23 -16
3 -44 16 -62 30 -18 13 -48 26 -67 30 -20 4 -52 22 -76 44 l-41 38 -6 330 c-5
241 -12 372 -27 489 -14 113 -22 244 -25 445 -4 174 -15 398 -30 575 -14 160
-35 461 -46 670 -11 209 -24 432 -29 495 -5 63 -13 277 -20 475 -11 350 -20
504 -40 690 -6 50 -14 214 -20 365 -5 151 -14 348 -21 437 -14 200 -9 225 51
270 25 18 63 42 85 54 22 12 51 31 65 41 14 11 70 48 125 83 55 35 111 72 125
83 14 10 39 26 55 35 17 8 51 34 75 57 47 42 136 106 180 128 14 6 45 28 70
47 41 32 95 64 111 65 4 0 13 -7 20 -16z m13046 -165 c18 -12 43 -40 55 -63
11 -22 26 -44 33 -48 6 -4 33 -44 60 -90 27 -46 58 -95 69 -110 12 -14 32 -45
46 -69 14 -23 38 -63 55 -88 16 -25 37 -62 47 -81 10 -19 34 -60 53 -90 46
-75 92 -169 98 -203 6 -36 -10 -42 -118 -52 -44 -4 -100 -16 -125 -27 -25 -10
-91 -26 -148 -34 -57 -8 -116 -21 -132 -29 -16 -8 -73 -21 -127 -30 -54 -8
-123 -23 -154 -34 -31 -10 -101 -24 -156 -30 -54 -6 -128 -19 -164 -30 -56
-17 -112 -25 -331 -48 l-47 -5 -126 125 c-69 69 -139 131 -156 139 -30 15
-108 81 -208 178 -31 30 -92 87 -136 125 -43 39 -104 93 -134 121 -31 27 -77
68 -102 90 -25 21 -72 70 -104 107 -55 64 -57 68 -39 82 22 17 49 22 159 30
44 3 116 12 160 20 44 8 179 22 300 30 121 8 252 21 290 29 39 8 156 20 260
25 105 6 217 17 250 26 33 8 128 19 210 26 149 10 316 25 324 28 2 0 19 -8 38
-20z m-12417 -15 c69 -8 143 -19 165 -24 22 -6 117 -15 211 -20 94 -5 202 -16
240 -25 38 -9 143 -20 234 -25 248 -15 407 -30 487 -46 40 -8 95 -14 123 -14
46 0 120 -21 120 -34 0 -11 -157 -174 -222 -230 -43 -37 -105 -94 -257 -235
-205 -191 -218 -202 -271 -237 -19 -12 -89 -77 -154 -143 -128 -129 -130 -130
-211 -111 -22 5 -95 16 -162 25 -67 8 -148 24 -180 34 -32 10 -98 22 -148 26
-51 4 -109 15 -134 26 -23 10 -84 24 -135 30 -50 6 -111 20 -135 30 -23 10
-84 24 -135 30 -50 6 -111 20 -136 31 -25 10 -83 24 -130 29 -117 14 -131 21
-120 56 14 48 49 120 64 132 8 7 20 29 27 49 6 20 25 52 40 70 16 18 29 39 29
47 0 7 11 26 24 42 13 15 31 44 40 63 23 49 68 125 87 147 9 10 37 55 64 101
26 45 51 82 56 82 4 0 15 20 25 45 27 71 43 77 219 70 83 -3 206 -13 275 -21z
m-1820 -1003 c5 -11 10 -82 10 -158 0 -202 18 -516 35 -609 10 -51 19 -213 25
-455 10 -358 17 -465 40 -609 5 -36 14 -218 20 -405 14 -438 27 -691 39 -746
5 -24 12 -127 16 -229 3 -102 13 -333 22 -514 16 -320 16 -329 -2 -342 -10 -8
-26 -14 -34 -14 -9 0 -66 46 -127 103 -61 56 -119 107 -129 113 -17 9 -19 32
-26 245 -4 129 -12 263 -18 299 -17 108 -30 291 -41 565 -5 143 -16 305 -24
360 -19 132 -25 214 -37 565 -5 162 -16 335 -24 385 -18 112 -23 193 -35 516
-5 140 -17 308 -25 374 -9 65 -17 157 -18 205 l-2 86 125 128 c108 110 162
154 192 156 4 0 12 -9 18 -19z m15686 -10 c17 -10 82 -70 146 -134 84 -84 117
-124 122 -148 3 -17 -1 -93 -9 -168 -8 -75 -17 -158 -20 -186 -3 -27 -10 -173
-15 -322 -6 -150 -15 -303 -20 -340 -23 -168 -30 -269 -41 -578 -7 -228 -17
-372 -30 -465 -13 -85 -24 -231 -29 -395 -9 -275 -13 -320 -36 -480 -8 -55
-18 -216 -22 -358 l-8 -258 -40 -37 c-208 -198 -276 -242 -289 -190 -3 13 -1
59 4 103 10 77 17 207 41 750 6 138 15 270 20 295 9 43 17 208 41 845 6 160
14 317 19 350 5 33 18 256 29 495 12 239 25 462 30 495 11 66 31 463 31 611 0
132 14 153 76 115z m-14371 -201 c18 -11 63 -21 115 -25 47 -4 110 -16 140
-27 30 -10 110 -26 178 -34 68 -8 140 -21 160 -30 20 -8 95 -22 167 -30 71 -8
157 -23 190 -33 35 -11 113 -22 185 -26 69 -4 157 -16 195 -26 39 -11 151 -26
250 -33 99 -8 216 -23 260 -34 49 -13 134 -23 220 -27 77 -4 189 -15 248 -25
63 -11 211 -24 355 -30 274 -12 406 -23 562 -44 58 -8 281 -19 495 -26 215 -6
467 -18 560 -26 338 -27 942 -35 2500 -31 1471 4 1811 10 2080 37 55 6 273 17
485 25 217 9 427 22 480 30 52 9 213 20 358 25 293 11 452 24 545 44 34 8 132
17 217 21 90 4 192 15 245 26 49 11 169 26 265 34 102 8 194 20 220 30 25 9
103 20 175 25 158 12 202 19 235 35 14 7 77 18 140 25 63 7 149 23 190 36 41
13 91 24 110 24 48 0 186 26 235 44 22 8 56 15 76 16 54 0 150 19 191 37 77
33 121 -9 100 -95 -6 -26 -14 -101 -17 -167 -12 -254 -26 -422 -40 -475 -18
-75 -23 -125 -35 -340 -6 -102 -17 -210 -25 -240 -9 -33 -21 -158 -30 -305 -8
-137 -21 -286 -30 -330 -9 -44 -22 -183 -30 -310 -8 -126 -22 -257 -30 -290
-8 -33 -19 -139 -25 -235 -12 -200 -17 -249 -35 -340 -7 -36 -18 -153 -25
-260 -6 -108 -19 -235 -30 -285 -10 -49 -22 -124 -26 -165 -9 -102 -16 -117
-67 -139 -23 -10 -48 -26 -56 -35 -7 -9 -32 -21 -54 -27 -23 -6 -54 -22 -70
-35 -16 -13 -37 -24 -46 -24 -10 0 -36 -12 -57 -26 -21 -15 -52 -31 -69 -37
-16 -5 -38 -17 -48 -26 -20 -17 -80 -51 -137 -77 -19 -9 -60 -28 -90 -43 -30
-16 -70 -31 -88 -35 -19 -3 -46 -14 -60 -25 -15 -10 -50 -26 -79 -34 -28 -9
-62 -22 -75 -31 -12 -8 -45 -20 -73 -27 -27 -7 -60 -20 -73 -30 -12 -9 -42
-21 -65 -24 -23 -4 -62 -18 -87 -30 -25 -12 -69 -28 -98 -34 -29 -6 -70 -20
-91 -31 -22 -11 -59 -22 -83 -26 -23 -4 -63 -17 -89 -30 -25 -12 -63 -26 -85
-29 -21 -4 -62 -18 -89 -31 -28 -13 -82 -28 -121 -33 -38 -6 -90 -19 -115 -30
-24 -11 -80 -24 -125 -30 -44 -6 -103 -20 -131 -31 -28 -10 -86 -22 -129 -26
-44 -3 -104 -14 -134 -24 -78 -25 -100 -29 -236 -40 -66 -5 -139 -16 -162 -24
-48 -17 -100 -23 -312 -36 -85 -4 -168 -14 -185 -20 -38 -14 -185 -27 -465
-40 -151 -7 -255 -16 -315 -29 -78 -17 -159 -21 -610 -31 -286 -6 -596 -15
-690 -21 -218 -14 -1457 -7 -1740 9 -115 7 -365 16 -555 21 -233 6 -373 14
-430 25 -47 8 -213 22 -370 30 -186 10 -301 20 -331 30 -26 8 -125 19 -220 25
-197 13 -231 17 -310 37 -31 7 -114 19 -185 24 -81 7 -157 20 -204 35 -41 13
-106 26 -144 29 -37 4 -100 18 -140 31 -39 13 -98 26 -131 30 -33 4 -80 15
-104 26 -24 10 -73 24 -109 29 -36 6 -84 20 -108 30 -23 11 -66 25 -95 31 -29
6 -73 22 -97 35 -25 13 -55 24 -68 24 -13 0 -54 11 -90 25 -37 14 -95 32 -128
40 -34 8 -79 23 -101 35 -21 11 -49 20 -61 20 -11 0 -41 11 -66 24 -25 13 -60
27 -79 31 -19 4 -52 17 -74 30 -22 12 -65 30 -96 39 -31 9 -62 22 -69 31 -6 8
-28 18 -49 21 -20 4 -63 20 -96 36 -132 65 -201 102 -220 118 -11 10 -37 23
-57 29 -20 7 -47 20 -60 30 -13 10 -40 24 -61 30 -20 7 -43 19 -51 26 -8 8
-38 26 -67 40 -145 69 -188 109 -189 179 0 15 -7 54 -15 86 -8 32 -22 160 -30
286 -8 126 -19 265 -25 309 -24 178 -29 238 -40 425 -6 107 -20 240 -30 295
-11 55 -24 172 -29 260 -6 88 -17 187 -26 220 -9 35 -19 145 -25 265 -10 220
-15 261 -36 357 -8 34 -19 149 -24 255 -6 106 -17 225 -26 263 -24 109 -31
184 -39 395 -4 107 -13 231 -21 275 -7 44 -14 99 -14 122 0 39 2 43 33 52 38
10 71 5 112 -19z m774 -4484 c9 -8 36 -19 61 -26 24 -7 55 -20 68 -30 12 -10
37 -22 55 -25 18 -4 50 -17 72 -30 22 -12 56 -26 75 -30 19 -4 53 -17 75 -30
22 -12 63 -27 91 -33 28 -6 73 -23 99 -37 27 -14 57 -25 69 -25 12 0 42 -11
66 -24 25 -13 72 -29 103 -35 32 -6 69 -19 83 -30 14 -11 49 -23 82 -26 31 -4
80 -17 107 -30 28 -13 87 -28 131 -35 45 -6 106 -19 136 -30 30 -10 91 -24
136 -29 45 -6 94 -17 109 -25 16 -7 74 -21 131 -30 56 -9 119 -23 140 -32 20
-8 86 -22 145 -29 60 -8 139 -24 175 -35 37 -12 115 -25 175 -30 59 -5 133
-18 165 -29 33 -12 109 -25 182 -31 179 -15 231 -32 279 -89 21 -25 48 -64 60
-86 23 -42 32 -55 124 -176 55 -74 67 -108 48 -138 -8 -12 -18 -13 -63 -3 -29
6 -85 17 -124 22 -39 6 -83 18 -99 26 -15 7 -73 21 -129 30 -55 9 -112 22
-126 29 -14 7 -56 18 -93 24 -38 7 -91 21 -118 31 -27 11 -87 27 -132 35 -45
8 -104 23 -132 33 -27 11 -81 25 -119 31 -38 7 -82 19 -98 27 -16 8 -65 21
-108 29 -44 8 -89 21 -102 29 -13 8 -63 22 -112 31 -48 9 -98 23 -110 30 -12
8 -58 21 -102 29 -45 8 -94 20 -110 29 -16 8 -54 20 -84 27 -30 7 -68 20 -85
30 -16 9 -61 25 -99 34 -38 9 -81 23 -97 32 -16 8 -58 21 -95 30 -37 8 -83 23
-103 33 -20 10 -52 21 -72 25 -19 3 -73 26 -120 51 -46 25 -100 52 -119 61
-19 9 -49 28 -66 43 -29 23 -71 54 -172 123 -18 13 -51 37 -72 53 -21 17 -64
49 -97 72 -52 38 -83 66 -159 144 -13 14 -21 29 -17 33 11 11 73 -1 92 -18z
m11526 4 c-3 -5 -15 -10 -26 -10 -11 0 -17 5 -14 10 3 6 15 10 26 10 11 0 17
-4 14 -10z m-11865 -30 c4 0 28 -16 52 -35 75 -60 92 -73 145 -109 29 -20 57
-36 62 -36 6 0 16 -8 23 -18 31 -45 200 -181 273 -221 83 -46 180 -109 231
-151 145 -117 145 -118 164 -245 6 -44 20 -99 30 -122 10 -23 24 -77 30 -120
7 -43 20 -97 30 -120 10 -23 24 -77 30 -120 7 -43 20 -97 30 -119 10 -23 23
-75 30 -115 7 -41 20 -93 31 -117 10 -24 23 -70 29 -102 6 -32 19 -78 29 -102
11 -24 24 -76 30 -115 6 -40 20 -95 31 -123 11 -28 25 -83 31 -123 6 -39 19
-88 29 -108 10 -20 24 -72 30 -115 7 -43 20 -95 30 -114 10 -20 21 -58 25 -85
9 -67 23 -124 40 -160 7 -16 18 -65 24 -108 6 -43 19 -94 30 -115 10 -20 24
-73 31 -117 6 -44 20 -107 30 -140 11 -33 24 -101 29 -151 6 -54 18 -106 30
-130 11 -21 25 -70 31 -109 6 -38 19 -90 29 -115 11 -25 24 -80 31 -123 6 -43
20 -97 30 -120 10 -23 23 -76 29 -119 6 -42 19 -91 30 -110 11 -18 23 -55 26
-83 4 -27 18 -73 30 -101 32 -68 44 -194 21 -213 -17 -15 -20 -13 -155 107
-35 31 -84 72 -109 92 -56 44 -599 505 -629 534 -32 32 -84 75 -219 181 -21
17 -53 44 -72 61 -65 59 -104 91 -301 249 -40 31 -56 54 -76 104 -23 57 -27
87 -41 320 -10 175 -21 281 -34 336 -11 44 -24 148 -29 230 -5 83 -14 161 -19
175 -16 43 -32 160 -42 310 -6 105 -14 159 -29 198 -15 37 -21 75 -21 135 0
80 -13 186 -45 392 -9 55 -20 163 -24 240 -6 87 -15 157 -26 185 -9 26 -22
114 -31 210 -8 91 -21 199 -29 240 -22 114 -31 325 -15 345 7 9 20 13 27 10 8
-3 18 -5 23 -5z m11810 -15 c0 -14 -4 -25 -9 -25 -6 0 -30 -17 -54 -37 -24
-21 -57 -46 -73 -55 -16 -10 -49 -31 -74 -48 -25 -17 -64 -39 -86 -50 -23 -11
-47 -27 -54 -35 -8 -9 -29 -23 -49 -31 -19 -8 -44 -22 -54 -32 -20 -18 -76
-50 -147 -83 -25 -12 -52 -27 -60 -34 -8 -7 -39 -20 -68 -29 -29 -8 -66 -26
-82 -39 -15 -13 -46 -27 -69 -31 -22 -3 -55 -15 -73 -25 -18 -11 -61 -24 -95
-30 -34 -5 -76 -17 -94 -27 -19 -9 -60 -23 -91 -30 -32 -8 -69 -21 -82 -29
-13 -9 -58 -22 -100 -30 -42 -8 -93 -23 -114 -34 -20 -10 -64 -22 -97 -26 -33
-4 -77 -16 -97 -26 -21 -11 -71 -26 -112 -33 -41 -8 -92 -23 -113 -34 -21 -11
-62 -22 -92 -26 -30 -4 -79 -18 -110 -30 -31 -13 -81 -27 -111 -31 -30 -4 -80
-17 -110 -30 -30 -13 -80 -26 -110 -30 -30 -4 -75 -18 -100 -30 -25 -12 -70
-26 -100 -30 -30 -4 -75 -16 -99 -26 -24 -11 -76 -24 -115 -30 -39 -6 -96 -22
-126 -34 -31 -13 -87 -28 -125 -33 -39 -6 -76 -12 -84 -13 -8 -2 -21 8 -30 23
-15 26 -14 28 11 55 14 15 35 46 47 68 12 22 35 58 52 80 32 43 93 130 122
175 31 49 115 77 267 90 78 7 171 22 220 36 47 13 105 24 130 24 69 1 178 18
210 35 16 8 82 21 147 29 65 8 138 22 163 31 25 9 80 20 123 26 43 5 101 19
128 29 28 11 97 27 155 35 57 8 117 21 132 29 16 8 69 20 118 27 49 6 104 20
121 30 18 10 61 23 95 29 35 6 86 22 113 34 28 13 68 27 90 31 22 3 54 15 71
26 17 10 55 24 85 30 30 6 69 20 87 30 18 10 54 24 80 30 26 7 65 22 87 34 22
13 56 26 75 30 19 4 46 15 60 25 14 10 45 23 70 30 25 7 57 21 71 31 24 17 80
35 117 38 6 1 12 -10 12 -24z m371 -1 c17 -21 -1 -285 -30 -431 -11 -56 -25
-170 -30 -255 -5 -88 -16 -174 -26 -203 -9 -28 -20 -115 -25 -198 -6 -82 -16
-174 -24 -205 -8 -32 -22 -140 -31 -242 -8 -102 -27 -248 -40 -325 -13 -77
-27 -193 -30 -259 -4 -74 -14 -141 -26 -180 -14 -41 -23 -111 -30 -216 -5 -85
-16 -177 -23 -205 -16 -55 -32 -204 -45 -428 -9 -135 -11 -150 -35 -180 -30
-39 -45 -54 -88 -89 -18 -15 -69 -57 -113 -93 -44 -37 -97 -81 -118 -98 -21
-18 -46 -39 -55 -48 -18 -18 -67 -59 -142 -119 -58 -47 -257 -218 -296 -255
-17 -17 -61 -55 -99 -85 -37 -30 -132 -109 -210 -175 -361 -302 -357 -299
-374 -288 -24 16 -16 142 14 213 13 30 27 86 30 124 4 38 17 101 30 140 12 39
25 102 29 139 4 38 17 101 30 140 13 40 27 108 31 152 4 44 16 105 26 135 11
32 26 119 34 205 8 83 23 175 33 205 11 30 22 92 26 137 3 45 15 109 26 142
11 34 24 101 30 149 6 48 20 117 30 153 11 37 26 115 34 175 8 60 22 129 30
153 9 23 21 84 27 135 6 50 19 109 29 131 10 22 23 79 30 125 6 47 19 110 30
140 11 30 26 105 34 165 8 61 22 126 30 146 8 19 20 84 26 144 7 60 23 142 36
182 13 41 24 89 24 107 0 51 17 130 46 212 24 67 30 76 68 94 22 11 70 38 106
60 36 22 76 46 90 52 14 7 38 23 53 35 16 13 34 23 41 23 7 0 33 13 58 29 25
16 60 32 79 36 19 4 48 19 65 34 18 14 55 40 84 56 51 29 101 68 144 111 12
12 39 31 61 43 72 39 114 67 138 89 13 12 28 22 33 22 6 0 28 13 50 30 45 34
56 36 75 14z m-10936 -751 c33 -8 80 -21 105 -30 25 -8 74 -23 110 -33 36 -10
83 -27 105 -38 22 -11 60 -23 85 -27 25 -4 62 -16 82 -26 21 -11 71 -26 112
-33 41 -8 92 -23 113 -34 21 -11 65 -23 98 -27 33 -4 85 -17 115 -30 30 -13
82 -26 115 -30 33 -4 77 -15 97 -26 21 -10 78 -25 128 -33 51 -8 102 -22 116
-31 13 -8 59 -20 101 -25 42 -6 95 -19 117 -31 22 -11 77 -27 122 -35 45 -8
102 -23 126 -33 23 -11 72 -22 108 -26 36 -4 90 -17 120 -30 31 -13 90 -25
135 -29 44 -4 100 -16 125 -27 25 -11 74 -24 109 -28 54 -7 68 -12 88 -37 29
-36 30 -45 48 -299 7 -115 21 -240 29 -277 9 -36 20 -147 26 -245 5 -101 16
-202 25 -233 8 -30 19 -109 25 -175 21 -272 31 -374 46 -450 8 -44 19 -152 24
-240 5 -90 16 -182 25 -210 8 -27 20 -115 25 -195 11 -163 30 -351 36 -362 10
-16 25 -176 34 -348 5 -102 16 -214 24 -250 18 -76 24 -159 36 -485 7 -183 14
-257 28 -310 11 -38 22 -124 26 -190 4 -66 18 -198 32 -293 30 -215 32 -342 6
-366 -11 -9 -25 -35 -32 -59 -7 -23 -23 -55 -36 -70 -13 -16 -24 -32 -24 -35
0 -4 -7 -15 -15 -26 -13 -18 -15 -17 -47 5 -18 13 -43 32 -54 43 -30 29 -42
40 -299 261 -126 109 -239 206 -250 217 -65 61 -304 258 -314 258 -3 0 -33 21
-66 46 -33 25 -76 58 -95 72 -49 38 -74 60 -123 112 -55 59 -110 111 -193 185
-142 126 -182 160 -304 257 -109 88 -219 191 -243 229 -9 15 -23 67 -31 117
-8 49 -21 100 -30 113 -8 13 -20 58 -27 99 -6 41 -20 95 -31 118 -10 24 -24
72 -30 105 -6 34 -19 78 -29 98 -10 20 -25 74 -33 122 -8 47 -22 97 -31 111
-9 14 -21 58 -26 98 -6 40 -21 100 -34 133 -12 33 -26 87 -30 120 -4 33 -15
80 -26 105 -11 24 -25 78 -31 120 -6 41 -19 95 -30 119 -11 24 -24 74 -30 110
-6 36 -19 83 -30 104 -10 21 -25 74 -33 117 -8 43 -21 92 -29 109 -9 17 -21
65 -26 108 -6 43 -19 103 -30 134 -11 31 -25 102 -30 157 -5 57 -18 122 -31
153 -11 30 -25 83 -30 119 -5 36 -21 97 -34 137 -14 39 -25 85 -25 102 0 17
-11 59 -24 94 -13 35 -29 90 -36 123 -7 32 -20 77 -30 99 -10 22 -23 76 -30
120 -6 44 -20 94 -30 110 -10 17 -24 70 -31 120 -6 49 -20 105 -30 125 -10 19
-23 72 -29 117 -6 45 -20 102 -31 127 -27 61 -35 129 -19 166 9 23 17 29 29
24 9 -4 43 -13 76 -21z m9564 -20 c21 -17 21 -21 10 -118 -6 -55 -20 -129 -30
-164 -11 -36 -27 -117 -35 -180 -8 -64 -24 -142 -35 -174 -10 -32 -23 -97 -28
-145 -5 -48 -19 -111 -30 -140 -11 -29 -26 -94 -31 -145 -6 -50 -19 -115 -30
-143 -12 -33 -23 -101 -29 -189 -6 -76 -19 -170 -30 -209 -11 -39 -24 -117
-30 -172 -5 -56 -17 -116 -25 -133 -9 -17 -23 -79 -31 -138 -7 -60 -21 -124
-29 -144 -8 -20 -22 -80 -31 -133 -8 -54 -24 -132 -35 -174 -10 -43 -24 -115
-30 -162 -6 -47 -20 -112 -30 -145 -11 -33 -24 -101 -30 -151 -5 -50 -19 -111
-30 -136 -11 -25 -22 -78 -26 -119 -4 -41 -15 -94 -25 -118 -11 -24 -24 -87
-30 -140 -6 -53 -19 -116 -30 -141 -11 -25 -26 -93 -34 -152 -8 -59 -21 -122
-28 -140 -8 -18 -17 -51 -21 -73 -15 -89 -19 -93 -519 -508 -142 -118 -175
-147 -281 -253 -92 -92 -198 -184 -250 -220 -16 -10 -45 -30 -66 -44 -50 -33
-101 -72 -180 -139 -60 -51 -81 -70 -143 -127 -12 -12 -110 -97 -217 -189
-107 -92 -204 -177 -215 -187 -75 -72 -135 -122 -167 -139 l-37 -19 -15 22
c-9 12 -16 28 -16 34 0 6 -9 19 -19 28 -11 10 -27 39 -35 64 -9 25 -23 53 -32
63 -21 23 -20 143 2 219 9 31 19 127 24 220 5 91 15 197 23 235 26 120 36 232
47 485 6 135 17 288 25 340 9 52 20 183 25 290 6 123 16 228 29 285 10 50 22
142 26 205 4 63 17 194 31 290 33 241 33 239 44 390 5 74 19 180 29 235 11 55
25 165 31 245 5 80 16 168 24 196 8 27 19 140 25 250 7 109 19 240 27 289 25
143 32 203 39 320 3 61 17 180 31 265 28 177 32 183 117 193 30 4 74 15 98 26
24 11 80 25 123 31 44 7 89 18 101 26 12 8 62 21 110 30 49 8 104 24 124 34
20 10 63 21 96 25 33 4 81 18 106 31 25 12 74 28 109 34 35 6 77 18 93 26 16
9 67 22 114 30 48 9 100 22 115 30 16 8 62 21 101 29 40 8 92 23 117 34 25 10
68 22 95 26 28 4 71 15 97 26 26 10 81 26 122 33 41 8 88 22 105 31 17 8 64
22 105 29 41 8 92 23 113 34 21 11 63 25 93 31 30 7 65 19 78 27 19 12 55 23
113 33 4 1 16 -7 28 -16z m-6876 -19 c104 -13 310 -22 897 -39 91 -2 287 -10
435 -16 669 -27 2647 13 3014 62 161 21 243 24 271 9 19 -10 19 -12 2 -48 -9
-20 -28 -51 -42 -69 -54 -70 -68 -90 -88 -130 -12 -22 -25 -43 -30 -45 -12 -5
-92 -122 -92 -135 0 -6 -20 -27 -44 -47 l-44 -36 -2150 0 -2149 0 -47 50 c-25
27 -46 53 -46 59 0 8 -33 52 -90 121 -12 14 -43 59 -70 101 -27 42 -56 82 -64
89 -19 15 -21 71 -3 89 14 15 149 9 340 -15z m2226 -654 c2115 -1 2003 2 2017
-56 4 -15 -1 -70 -10 -123 -28 -153 -34 -205 -46 -396 -7 -99 -21 -223 -31
-275 -11 -52 -24 -167 -29 -255 -5 -95 -15 -177 -23 -201 -21 -56 -25 -108
-37 -401 -8 -172 -16 -268 -26 -300 -9 -29 -19 -118 -24 -228 -8 -176 -30
-396 -51 -505 -5 -30 -14 -116 -20 -190 -5 -74 -18 -166 -28 -205 -13 -45 -21
-123 -25 -220 -4 -82 -13 -195 -21 -250 -19 -136 -35 -302 -46 -470 -4 -77
-15 -161 -23 -187 -8 -25 -20 -113 -26 -195 -24 -306 -31 -336 -83 -348 -12
-3 -724 -4 -1582 -3 l-1560 3 -12 26 c-22 46 -42 175 -63 414 -11 127 -25 255
-30 285 -6 30 -15 136 -20 235 -6 99 -17 207 -25 240 -13 53 -33 237 -51 485
-3 47 -15 118 -25 159 -10 41 -19 100 -19 132 0 81 -18 244 -36 325 -8 38 -19
159 -25 269 -5 110 -14 229 -20 264 -19 119 -39 345 -40 451 0 58 -4 130 -9
160 -24 145 -50 392 -59 550 -6 96 -17 200 -26 230 -8 30 -19 129 -24 220 -6
102 -16 182 -25 209 -25 69 -21 95 21 131 l37 33 90 -7 c50 -3 966 -6 2035 -6z
m1531 -5002 c43 -52 70 -93 75 -117 3 -16 17 -39 31 -51 18 -18 24 -34 24 -64
0 -44 -25 -74 -115 -141 l-40 -30 -1606 0 -1607 0 -68 61 c-45 40 -70 70 -72
86 -3 25 109 244 132 260 6 4 736 8 1623 8 1278 0 1614 -3 1623 -12z"/>
<path d="M3536 11718 c-14 -43 -13 -70 5 -161 17 -93 30 -257 45 -572 3 -66
14 -156 24 -200 12 -50 23 -152 29 -275 7 -122 16 -214 26 -245 10 -32 19
-123 26 -255 6 -132 17 -239 30 -300 11 -52 24 -162 29 -245 5 -82 16 -199 24
-260 24 -180 35 -298 47 -515 6 -113 19 -250 30 -305 10 -55 19 -116 19 -135
0 -52 20 -82 60 -93 19 -5 44 -17 56 -28 12 -11 39 -25 60 -31 21 -5 52 -21
67 -34 16 -13 34 -24 41 -24 7 0 32 -13 57 -29 24 -16 60 -32 79 -36 19 -4 47
-18 62 -30 14 -12 44 -25 66 -28 22 -4 45 -14 52 -22 7 -8 37 -22 68 -31 30
-9 69 -24 86 -34 17 -10 50 -23 74 -30 23 -6 64 -22 89 -35 25 -14 55 -25 66
-25 11 0 39 -11 62 -25 24 -13 62 -27 86 -31 24 -3 62 -17 84 -29 22 -13 65
-28 96 -33 30 -6 77 -22 104 -36 26 -14 60 -26 75 -26 15 0 48 -11 74 -25 25
-14 77 -29 114 -35 37 -6 83 -19 103 -30 20 -10 63 -21 95 -25 32 -4 91 -18
131 -31 39 -12 105 -27 145 -33 40 -6 98 -19 128 -30 30 -10 100 -25 155 -31
54 -7 126 -20 160 -31 33 -11 103 -24 156 -29 52 -5 108 -14 124 -20 55 -21
120 -31 264 -40 80 -5 184 -18 231 -29 57 -14 152 -24 290 -31 113 -6 250 -17
305 -25 231 -34 1642 -58 2654 -44 897 12 1283 24 1396 43 50 8 200 22 335 30
135 8 256 19 270 24 37 14 170 30 299 37 63 4 132 13 155 20 23 8 73 19 111
24 39 6 105 15 148 22 43 6 93 17 110 24 18 7 74 18 125 24 52 7 131 22 175
35 45 13 111 26 146 30 35 4 86 16 113 27 28 11 84 24 126 30 43 6 91 19 107
29 17 10 57 21 90 25 33 4 85 18 115 31 30 13 82 30 116 38 33 7 72 21 86 30
13 9 48 20 76 26 29 5 76 21 106 35 29 14 59 25 67 25 8 0 41 13 75 29 34 16
79 32 102 36 22 3 46 13 53 21 6 8 37 21 68 30 31 9 71 24 88 35 18 10 52 23
75 30 24 6 55 19 69 30 14 10 44 22 67 27 22 5 53 18 69 29 15 11 46 26 68 33
22 7 51 21 65 30 14 9 42 25 63 35 20 9 37 21 37 25 0 5 22 16 49 25 27 9 55
23 61 31 7 7 30 19 52 26 48 14 68 41 68 91 0 22 11 110 25 196 13 86 29 244
35 351 5 109 16 221 25 254 16 62 19 88 36 381 5 99 19 236 30 305 11 69 24
209 29 312 6 116 17 220 29 275 11 50 23 150 26 233 4 80 15 187 26 237 10 51
23 173 29 270 10 156 28 356 49 547 9 73 3 116 -16 123 -7 3 -42 -4 -76 -15
-34 -11 -100 -24 -146 -27 -46 -4 -103 -16 -127 -27 -24 -10 -83 -23 -131 -29
-49 -5 -118 -18 -155 -29 -38 -11 -123 -27 -190 -35 -68 -8 -152 -24 -186 -35
-36 -11 -116 -24 -181 -29 -77 -5 -129 -14 -151 -26 -25 -13 -72 -20 -175 -25
-92 -5 -155 -14 -180 -24 -22 -9 -82 -21 -135 -27 -52 -5 -160 -16 -240 -24
-80 -8 -190 -21 -245 -29 -55 -8 -185 -19 -290 -25 -104 -6 -219 -18 -255 -26
-36 -8 -168 -19 -295 -25 -244 -11 -463 -25 -660 -40 -66 -5 -322 -14 -569
-20 -248 -5 -644 -15 -880 -22 -517 -15 -1590 -14 -2136 1 -217 6 -575 16
-795 21 -396 9 -616 20 -810 40 -55 5 -228 15 -385 20 -157 6 -330 17 -385 25
-149 21 -185 24 -368 35 -98 6 -200 18 -245 29 -46 12 -133 22 -215 25 -76 4
-173 13 -215 22 -148 29 -188 34 -327 44 -88 5 -164 16 -205 29 -36 11 -119
25 -185 30 -69 6 -144 18 -177 30 -31 10 -104 24 -162 30 -58 6 -123 18 -143
26 -21 9 -85 23 -143 31 -57 8 -132 23 -166 34 -34 10 -91 22 -126 25 -34 4
-85 13 -113 20 -96 25 -105 26 -109 13z"/>
<path d="M8535 3799 l-35 -31 0 -189 0 -188 33 -18 c30 -17 109 -18 1352 -21
1302 -2 1320 -2 1353 18 l32 20 0 189 0 189 -35 31 -36 31 -1314 0 -1314 0
-36 -31z"/>
</g>
</svg>
